<?xml version="1.0" encoding="UTF-8"?>
<svg width="1440px" height="77px" viewBox="0 0 1440 77" version="1.1" xmlns="http://www.w3.org/2000/svg" xmlns:xlink="http://www.w3.org/1999/xlink">
    <!-- Generator: Sketch 61.2 (89653) - https://sketch.com -->
    <title>img_shape_wave_02</title>
    <desc>Created with Sketch.</desc>
    <g id="Page-1" stroke="none" stroke-width="1" fill="none" fill-rule="evenodd">
        <g id="img_shape_wave_02" fill-rule="nonzero">
            <path d="M0,0 L34.3,7.28144 C68.6,14.5629 137,29.1257 206,41.2766 C274.3,53.2455 343,63.2575 411,63.121 C480,63.2575 549,53.2455 617,41.2766 C685.7,29.1257 754,14.5629 823,24.2563 C891.4,34.1317 960,67.8084 1029,63.121 C1097.1,58.2515 1166,14.5629 1234,7.28144 C1302.9,0 1371,29.1257 1406,43.6886 L1440,58.2515 L1440,76 L1405.7,76 C1371.4,76 1303,76 1234,76 C1165.7,76 1097,76 1029,76 C960,76 891,76 823,76 C754.3,76 686,76 617,76 C548.6,76 480,76 411,76 C342.9,76 274,76 206,76 C137.1,76 69,76 34,76 L0,76 L0,0 Z" id="Path" fill-opacity="0.0266608392" fill="#000000"></path>
            <path d="M0,1 L34.3,8.28144 C68.6,15.5629 137,30.1257 206,42.2766 C274.3,54.2455 343,64.2575 411,64.121 C480,64.2575 549,54.2455 617,42.2766 C685.7,30.1257 754,15.5629 823,25.2563 C891.4,35.1317 960,68.8084 1029,64.121 C1097.1,59.2515 1166,15.5629 1234,8.28144 C1302.9,1 1371,30.1257 1406,44.6886 L1440,59.2515 L1440,77 L1405.7,77 C1371.4,77 1303,77 1234,77 C1165.7,77 1097,77 1029,77 C960,77 891,77 823,77 C754.3,77 686,77 617,77 C548.6,77 480,77 411,77 C342.9,77 274,77 206,77 C137.1,77 69,77 34,77 L0,77 L0,1 Z" id="Path-Copy" fill="#FFFFFF"></path>
        </g>
    </g>
</svg>